solid OpenSCAD_Model
facet normal 0 -1 0
	outer loop
		vertex 1 2 3
		vertex 11 2 3
		vertex 11 2 13
	endloop
endfacet
facet normal 0 1 0
	outer loop
		vertex 1 2 3
		vertex 1 2 13
		vertex 11 2 13
	endloop
endfacet
facet normal 1 0 0
	outer loop
		vertex 11 2 3
		vertex 11 12 3
		vertex 11 2 13
	endloop
endfacet
facet normal 1 0 -0
	outer loop
		vertex 11 12 3
		vertex 11 12 13
		vertex 11 2 13
	endloop
endfacet
facet normal 0 1 -0
	outer loop
		vertex 11 12 3
		vertex 1 12 3
		vertex 11 12 13
	endloop
endfacet
facet normal 0 1 0
	outer loop
		vertex 1 12 3
		vertex 1 12 13
		vertex 11 12 13
	endloop
endfacet
facet normal 1 0 0
	outer loop
		vertex 1 2 3
		vertex 1 12 3
		vertex 1 2 13
	endloop
endfacet
facet normal -1 0 0
	outer loop
		vertex 1 2 13
		vertex 1 12 13
		vertex 1 12 3
	endloop
endfacet
facet normal 0 0 1
	outer loop
		vertex 1 2 3
		vertex 11 2 3
		vertex 1 12 3
	endloop
endfacet
facet normal 0 0 -1
	outer loop
		vertex 1 12 3
		vertex 11 12 3
		vertex 11 2 3
	endloop
endfacet
facet normal 0 0 1
	outer loop
		vertex 1 2 13
		vertex 11 2 13
		vertex 1 12 13
	endloop
endfacet
facet normal 0 0 -1
	outer loop
		vertex 1 12 13
		vertex 11 12 13
		vertex 11 2 13
	endloop
endfacet
ensolid OpenSCAD_Model
