solid OpenSCAD_Model
facet normal 0 -1 0
	outer loop
		vertex 1 2 3
		vertex 11 2 3
		vertex 11 2 13
	endloop
endfacet
facet normal 0 1 0
	outer loop
		vertex 1 2 3
		vertex 1 2 13
		vertex 11 2 13
	endloop
endfacet
facet normal 1 0 0
	outer loop
		vertex 11 2 3
		vertex 11 12 3
		vertex 11 2 13
	endloop
endfacet
facet normal 1 0 -0
	outer loop
		vertex 11 12 3
		vertex 11 12 13
		vertex 11 2 13
	endloop
endfacet
facet normal 0 1 -0
	outer loop
		vertex 11 12 3
		vertex 1 12 3
		vertex 11 12 13
	endloop
endfacet
facet normal 0 1 0
	outer loop
		vertex 1 12 3
		vertex 1 12 13
		vertex 11 12 13
	endloop
endfacet
facet normal 1 0 0
	outer loop
		vertex 1 2 3
		vertex 1 12 3
		vertex 1 2 13
	endloop
endfacet
facet normal -1 0 0
	outer loop
		vertex 1 2 13
		vertex 1 12 13
		vertex 1 12 3
	endloop
endfacet
facet normal 0 0 1
	outer loop
		vertex 1 2 3
		vertex 11 2 3
		vertex 1 12 3
	endloop
endfacet
facet normal 0 0 -1
	outer loop
		vertex 1 12 3
		vertex 11 12 3
		vertex 11 2 3
	endloop
endfacet
facet normal 0 0 1
	outer loop
		vertex 1 2 13
		vertex 11 2 13
		vertex 1 12 13
	endloop
endfacet
facet normal 0 0 -1
	outer loop
		vertex 1 12 13
		vertex 11 12 13
		vertex 11 2 13
	endloop
endfacet
facet normal 0 0 1
	outer loop
		vertex 10 0 0
		vertex 5 8.66025 0
		vertex 5 -8.66025 0
	endloop
endfacet
facet normal 0 0 -1
	outer loop
		vertex -10 0 0
		vertex -5 8.66025 0
		vertex -5 -8.66025 0
	endloop
endfacet
facet normal 0 0 -1
	outer loop
		vertex -5 8.66025 0
		vertex 5 8.66025 0
		vertex 5 -8.66025 0
	endloop
endfacet
facet normal 0 0 1
	outer loop
		vertex -5 8.66025 0
		vertex -5 -8.66025 0
		vertex 5 -8.66025 0
	endloop
endfacet
facet normal 0 0 1
	outer loop
		vertex 10 0 20
		vertex 5 8.66025 20
		vertex 5 -8.66025 20
	endloop
endfacet
facet normal 0 0 -1
	outer loop
		vertex -10 0 20
		vertex -5 8.66025 20
		vertex -5 -8.66025 20
	endloop
endfacet
facet normal 0 0 -1
	outer loop
		vertex -5 8.66025 20
		vertex 5 8.66025 20
		vertex 5 -8.66025 20
	endloop
endfacet
facet normal 0 0 1
	outer loop
		vertex -5 8.66025 20
		vertex -5 -8.66025 20
		vertex 5 -8.66025 20
	endloop
endfacet
facet normal 0.866025 0.5 -0
	outer loop
		vertex 10 0 0
		vertex 5 8.66025 0
		vertex 10 0 20
	endloop
endfacet
facet normal 0.866025 0.5 0
	outer loop
		vertex 10 0 20
		vertex 5 8.66025 0
		vertex 5 8.66025 20
	endloop
endfacet
facet normal -0.866025 0.5 0
	outer loop
		vertex 10 0 0
		vertex 5 -8.66025 0
		vertex 10 0 20
	endloop
endfacet
facet normal -0.866025 0.5 0
	outer loop
		vertex 10 0 20
		vertex 5 -8.66025 0
		vertex 5 -8.66025 20
	endloop
endfacet
facet normal 0 -1 0
	outer loop
		vertex -5 8.66025 0
		vertex 5 8.66025 0
		vertex -5 8.66025 20
	endloop
endfacet
facet normal 0 -1 0
	outer loop
		vertex -5 8.66025 20
		vertex 5 8.66025 0
		vertex 5 8.66025 20
	endloop
endfacet
facet normal 0 -1 0
	outer loop
		vertex -5 -8.66025 0
		vertex 5 -8.66025 0
		vertex -5 -8.66025 20
	endloop
endfacet
facet normal 0 -1 0
	outer loop
		vertex -5 -8.66025 20
		vertex 5 -8.66025 0
		vertex 5 -8.66025 20
	endloop
endfacet
facet normal 0.866025 -0.5 0
	outer loop
		vertex -10 0 0
		vertex -5 8.66025 0
		vertex -10 0 20
	endloop
endfacet
facet normal 0.866025 -0.5 0
	outer loop
		vertex -10 0 20
		vertex -5 8.66025 0
		vertex -5 8.66025 20
	endloop
endfacet
facet normal -0.866025 -0.5 0
	outer loop
		vertex -10 0 0
		vertex -5 -8.66025 0
		vertex -10 0 20
	endloop
endfacet
facet normal -0.866025 -0.5 0
	outer loop
		vertex -10 0 20
		vertex -5 -8.66025 0
		vertex -5 -8.66025 20
	endloop
endfacet
ensolid OpenSCAD_Model
